<?xml version="1.0" encoding="UTF-8"?>
<!DOCTYPE svg PUBLIC "-//W3C//DTD SVG 1.1//EN" "http://www.w3.org/Graphics/SVG/1.1/DTD/svg11.dtd">
<!-- Creator: CorelDRAW 2020 (64 Bit) -->
<svg xmlns="http://www.w3.org/2000/svg" xml:space="preserve" width="84.6666mm" height="84.6666mm" version="1.1" style="shape-rendering:geometricPrecision; text-rendering:geometricPrecision; image-rendering:optimizeQuality; fill-rule:evenodd; clip-rule:evenodd"
viewBox="0 0 8466.66 8466.66"
 xmlns:xlink="http://www.w3.org/1999/xlink"
 xmlns:xodm="http://www.corel.com/coreldraw/odm/2003">
 <defs>
  <style type="text/css">
   <![CDATA[
    .fil0 {fill:#870A28;fill-rule:nonzero}
   ]]>
  </style>
 </defs>
 <g id="Camada_x0020_1">
  <metadata id="CorelCorpID_0Corel-Layer"/>
  <g id="_2056802910320">
   <path class="fil0" d="M5486.89 1779.34c-8.08,-2.7 -13.51,-5.34 -18.81,-8.09 -59.36,97.1 -107.88,204.87 -145.64,323.5 35.05,5.41 70.11,13.49 105.15,24.26 13.54,62.06 5.37,134.81 -26.89,213 -337.07,862.67 -196.86,1310.23 425.92,1342.52 -455.68,-684.72 -269.7,-1232 555.25,-1639.08l-137.42 -299.22c-266.9,134.77 -522.98,148.25 -757.56,43.11z"/>
   <path class="fil0" d="M3370.66 1725.42c-501.5,175.24 -835.75,191.43 -1005.6,48.58l-450.25 469.05c250.74,-75.47 390.94,91.64 420.56,501.43 175.25,-91.64 358.61,-167.14 550.03,-226.42 -2.75,-80.9 -8.08,-159.08 -13.49,-237.31 541.88,-274.94 1194.24,-366.62 1962.59,-269.58 -8.08,-64.66 -2.73,-126.69 13.52,-188.67 10.73,-53.94 29.62,-102.44 56.52,-153.69 -644.25,-94.36 -1156.51,-75.47 -1533.88,56.61z"/>
   <path class="fil0" d="M3292.47 649.76l-428.64 428.67c318.11,-43.18 496.02,150.93 541.87,582.33 164.42,-51.25 355.82,-83.62 571.5,-97.11 -10.81,-140.13 -21.57,-274.94 -35.02,-398.98 417.83,-24.26 779.08,-124.01 1089.13,-296.52 110.5,140.14 272.24,239.93 479.85,304.63 -714.42,439.44 -822.23,878.81 -318.06,1323.65 67.39,-708.99 417.77,-1159.22 1054.07,-1345.25 -439.44,-234.53 -822.29,-477.14 -1151.13,-727.86 -1011,353.16 -1612.18,428.63 -1803.57,226.44z"/>
   <path class="fil0" d="M5158.05 2534.2c-43.2,-37.77 -80.9,-75.47 -115.96,-113.24 -345.01,-45.86 -673.93,-61.98 -986.67,-51.18 0,126.65 0,256.13 0,390.86 350.45,-10.76 733.22,16.2 1140.33,78.2 21.54,-115.89 56.66,-242.62 105.15,-380.11 -18.87,-5.4 -35.04,-8.08 -53.92,-8.08 0,16.16 -2.73,35.04 -5.38,51.18 0,13.49 -8.08,24.29 -16.17,32.37 -8.14,8.08 -18.87,13.49 -32.33,13.49 -13.51,0 -24.32,-5.41 -35.05,-13.49z"/>
   <path class="fil0" d="M3996.08 3326.8l5.41 -277.69c5.36,-369.34 5.36,-709.02 -2.72,-1016.34 -202.19,16.17 -396.26,45.78 -576.93,94.37 13.49,622.74 18.88,1253.57 10.8,1889.8 194.07,-24.29 380.14,-37.77 549.96,-45.82l5.4 -242.65 393.62 -53.94 70.09 62.06c-35.05,99.72 -64.65,194.08 -86.25,283.03 -412.47,-16.16 -903.17,26.98 -1480.06,132.12 16.13,-372.01 24.22,-746.75 16.13,-1134.97 -202.19,70.07 -385.5,161.74 -558.01,274.99 43.1,1415.35 -107.84,2574.56 -452.92,3477.7l191.39 204.86c369.37,-75.47 649.72,48.51 838.43,374.71 70.06,-91.58 126.72,-191.37 177.9,-301.87 -137.45,-215.7 -326.16,-355.9 -566.09,-412.47 159.02,-657.85 269.62,-1345.29 326.19,-2065.08 555.37,-91.71 1008.26,-134.77 1361.42,-129.34 37.78,2.57 70.07,2.57 105.13,5.3 24.3,363.98 234.56,622.79 625.49,770.99l0 -150.93c-194.15,-196.78 -296.59,-393.58 -307.32,-593.09 78.12,10.8 150.95,24.25 218.34,40.41 156.37,37.77 266.81,115.89 326.19,231.84 18.89,-237.13 18.89,-477.12 0,-719.77 -115.88,18.88 -258.81,24.29 -434.07,18.88 64.66,-115.91 156.37,-229.15 277.71,-347.76l-196.81 -382.82c-177.9,24.29 -369.33,48.49 -571.56,67.39 -145.53,24.28 -234.49,2.68 -266.86,-53.91z"/>
   <path class="fil0" d="M3971.8 4494.14c-164.43,5.36 -347.74,21.54 -547.2,43.14 -8.17,409.74 -18.9,819.51 -35.1,1231.97 94.36,8.15 194.11,13.52 293.87,16.17 88.95,0 177.91,0 264.21,0l24.22 -1291.28z"/>
   <path class="fil0" d="M3384.14 2830.78c-2.72,-126.72 -5.4,-256.13 -5.4,-382.85 -1083.79,202.19 -1935.66,803.4 -2558.41,1800.85 -72.79,124.03 -151.01,226.47 -226.48,307.37 102.44,37.71 183.31,110.46 245.3,218.34 310.06,558.03 719.84,967.87 1232.04,1226.68 37.78,-156.39 70.14,-318.19 97.08,-488.02 -374.71,-194.15 -638.95,-479.85 -784.49,-851.91 -62.02,-153.58 -45.86,-307.3 43.1,-461 428.67,-744.02 1081.07,-1199.63 1957.26,-1369.46z"/>
   <path class="fil0" d="M2766.72 5726.18c-26.93,169.82 -56.58,336.94 -94.35,501.47 293.9,75.39 609.29,113.17 951.69,113.17 603.87,2.71 1153.79,-99.73 1647.16,-301.96 471.85,-194.08 932.81,-264.17 1380.34,-212.95 18.89,-280.43 121.31,-485.29 312.76,-609.35 191.34,-123.96 342.35,-88.9 452.8,102.44l242.64 -5.29c-137.47,-151.07 -64.66,-315.47 213.05,-496.08 -442.17,0 -714.5,-62.03 -824.94,-194.15 -940.9,838.46 -2065.08,1242.84 -3364.5,1210.51 -342.4,-8.08 -644.35,-43.13 -916.65,-107.81z"/>
   <path class="fil0" d="M3947.58 6381.24c-107.84,5.35 -215.67,10.78 -323.52,10.78 -97.03,0 -191.42,-2.71 -283.09,-8.08 -70.07,458.33 -221.07,822.23 -455.57,1086.4l167.11 264.26c253.44,-310.03 601.18,-347.81 1035.22,-107.8 434.1,237.19 884.27,288.41 1348.02,148.21 -930.16,-129.39 -1426.18,-595.81 -1488.17,-1393.77z"/>
   <path class="fil0" d="M3327.48 7578.23c-72.78,32.33 -140.2,83.55 -199.47,150.99 188.74,231.86 363.97,336.95 528.39,309.97 -142.85,-142.85 -250.7,-296.43 -328.92,-460.96z"/>
   <path class="fil0" d="M6899.58 2943.95l-156.39 -229.09c-334.27,21.53 -660.47,-18.89 -975.87,-129.4 -43.14,59.26 -72.82,118.6 -94.36,183.26 -21.6,59.3 -32.33,121.33 -35.11,186.03 288.49,121.32 463.74,310.03 525.7,571.52 75.54,328.93 385.57,477.19 927.38,442.17 145.63,-29.69 175.26,-115.93 94.41,-258.82 -80.9,-142.92 -188.69,-129.44 -320.82,35.06 -256.1,-32.37 -385.51,-159.1 -388.22,-377.46 -5.37,-218.32 134.77,-361.21 423.28,-423.27z"/>
  </g>
 </g>
</svg>
